<svg width="45" height="46" viewBox="0 0 45 46" fill="none" xmlns="http://www.w3.org/2000/svg">
<mask id="path-1-outside-1_161_502" maskUnits="userSpaceOnUse" x="0.625" y="10.3301" width="28" height="28" fill="black">
<rect fill="white" x="0.625" y="10.3301" width="28" height="28"/>
<path d="M5.30839 31.2122C5.30839 33.5993 7.22983 35.5345 9.60004 35.5345C11.9703 35.5345 13.8917 33.5993 13.8917 31.2122C13.8917 28.8252 11.9703 26.89 9.60004 26.89C7.22983 26.89 5.30839 28.8252 5.30839 31.2122Z"/>
</mask>
<path d="M11.3167 13.9234L12.2124 14.3681V14.3681L11.3167 13.9234ZM8.74171 19.1101L9.6374 19.5547C9.62606 19.5776 9.61386 19.6 9.60081 19.6219L8.74171 19.1101ZM3.59172 31.2122L3.59172 30.2122H3.59172V31.2122ZM4.5671 30.2122C5.11938 30.2122 5.5671 30.66 5.5671 31.2122C5.5671 31.7645 5.11938 32.2122 4.5671 32.2122V30.2122ZM15.6084 32.2122C15.0561 32.2122 14.6084 31.7645 14.6084 31.2122C14.6084 30.66 15.0561 30.2122 15.6084 30.2122V32.2122ZM27.625 30.2122C28.1773 30.2122 28.625 30.66 28.625 31.2122C28.625 31.7645 28.1773 32.2122 27.625 32.2122V30.2122ZM13.8917 12.3301C13.6532 12.3301 13.4373 12.4222 13.1573 12.7536C12.8472 13.1204 12.5664 13.655 12.2124 14.3681L10.421 13.4787C10.7537 12.8087 11.1361 12.0466 11.6298 11.4625C12.1534 10.843 12.8817 10.3301 13.8917 10.3301V12.3301ZM12.2124 14.3681L9.6374 19.5547L7.84602 18.6654L10.421 13.4787L12.2124 14.3681ZM8.74171 19.1101C9.60081 19.6219 9.60036 19.6226 9.59992 19.6234C9.59977 19.6236 9.59932 19.6244 9.59902 19.6249C9.59841 19.6259 9.59779 19.6269 9.59716 19.6279C9.59591 19.63 9.5946 19.6322 9.59326 19.6343C9.59057 19.6387 9.58771 19.6433 9.58466 19.6481C9.57857 19.6577 9.57176 19.6681 9.5642 19.6793C9.54907 19.7018 9.53091 19.7272 9.50943 19.7553C9.46643 19.8114 9.41027 19.8776 9.33867 19.9497C9.19473 20.0947 8.99194 20.26 8.71499 20.415C8.15674 20.7273 7.3395 20.9745 6.16672 20.9745V18.9745C7.05393 18.9745 7.52419 18.7895 7.73843 18.6696C7.84773 18.6084 7.90244 18.5577 7.91944 18.5405C7.9283 18.5316 7.92847 18.5303 7.92168 18.5391C7.91831 18.5435 7.91323 18.5504 7.90665 18.5602C7.90336 18.5651 7.89969 18.5706 7.89568 18.577C7.89367 18.5801 7.89158 18.5835 7.8894 18.587C7.88831 18.5888 7.8872 18.5906 7.88607 18.5925C7.8855 18.5934 7.88493 18.5944 7.88436 18.5953C7.88407 18.5958 7.88363 18.5965 7.88349 18.5968C7.88305 18.5975 7.88261 18.5982 8.74171 19.1101ZM6.16672 20.9745C5.57376 20.9745 4.68716 21.1244 3.98621 21.531C3.33551 21.9085 2.87506 22.475 2.87506 23.4323H0.875061C0.875061 21.6234 1.84516 20.4609 2.98265 19.8011C4.06989 19.1704 5.32912 18.9745 6.16672 18.9745V20.9745ZM2.87506 23.4323V29.4834H0.875061V23.4323H2.87506ZM2.87506 29.4834C2.87506 29.5532 2.93096 29.7464 3.13576 29.9526C3.34124 30.1596 3.52998 30.2122 3.59172 30.2122L3.59173 32.2122C2.83415 32.2122 2.16456 31.813 1.71654 31.3618C1.26784 30.9099 0.875061 30.2387 0.875061 29.4834H2.87506ZM3.59172 30.2122H4.5671V32.2122H3.59172V30.2122ZM15.6084 30.2122H27.625V32.2122H15.6084V30.2122ZM13.8917 10.3301H27.625V12.3301H13.8917V10.3301ZM7.30839 31.2122C7.30839 32.5082 8.34775 33.5345 9.60004 33.5345V37.5345C6.1119 37.5345 3.30839 34.6905 3.30839 31.2122H7.30839ZM9.60004 33.5345C10.8523 33.5345 11.8917 32.5082 11.8917 31.2122H15.8917C15.8917 34.6905 13.0882 37.5345 9.60004 37.5345V33.5345ZM11.8917 31.2122C11.8917 29.9163 10.8523 28.89 9.60004 28.89V24.89C13.0882 24.89 15.8917 27.734 15.8917 31.2122H11.8917ZM9.60004 28.89C8.34775 28.89 7.30839 29.9163 7.30839 31.2122H3.30839C3.30839 27.734 6.1119 24.89 9.60004 24.89V28.89Z" fill="#1E1E1E" mask="url(#path-1-outside-1_161_502)"/>
<mask id="path-3-outside-2_161_502" maskUnits="userSpaceOnUse" x="17.0273" y="10.3301" width="28" height="28" fill="black">
<rect fill="white" x="17.0273" y="10.3301" width="28" height="28"/>
<path d="M40.344 31.2122C40.344 33.5993 38.4225 35.5345 36.0523 35.5345C33.6821 35.5345 31.7606 33.5993 31.7606 31.2122C31.7606 28.8252 33.6821 26.89 36.0523 26.89C38.4225 26.89 40.344 28.8252 40.344 31.2122Z"/>
</mask>
<path d="M34.3356 13.9234L33.4399 14.3681V14.3681L34.3356 13.9234ZM36.9106 19.1101L36.0149 19.5547C36.0263 19.5776 36.0385 19.6 36.0515 19.6219L36.9106 19.1101ZM42.0606 31.2122L42.0606 30.2122H42.0606V31.2122ZM41.0852 30.2122C40.533 30.2122 40.0852 30.66 40.0852 31.2122C40.0852 31.7645 40.533 32.2122 41.0852 32.2122V30.2122ZM30.044 32.2122C30.5963 32.2122 31.044 31.7645 31.044 31.2122C31.044 30.66 30.5963 30.2122 30.044 30.2122V32.2122ZM18.0273 30.2122C17.4751 30.2122 17.0273 30.66 17.0273 31.2122C17.0273 31.7645 17.4751 32.2122 18.0273 32.2122V30.2122ZM31.7606 12.3301C31.9991 12.3301 32.215 12.4222 32.4951 12.7536C32.8051 13.1204 33.0859 13.655 33.4399 14.3681L35.2313 13.4787C34.8987 12.8087 34.5162 12.0466 34.0226 11.4625C33.4989 10.843 32.7707 10.3301 31.7606 10.3301V12.3301ZM33.4399 14.3681L36.0149 19.5547L37.8063 18.6654L35.2313 13.4787L33.4399 14.3681ZM36.9106 19.1101C36.0515 19.6219 36.052 19.6226 36.0524 19.6234C36.0526 19.6236 36.053 19.6244 36.0533 19.6249C36.0539 19.6259 36.0546 19.6269 36.0552 19.6279C36.0564 19.63 36.0577 19.6322 36.0591 19.6343C36.0618 19.6387 36.0646 19.6433 36.0677 19.6481C36.0738 19.6577 36.0806 19.6681 36.0881 19.6793C36.1033 19.7018 36.1214 19.7272 36.1429 19.7553C36.1859 19.8114 36.2421 19.8776 36.3137 19.9497C36.4576 20.0947 36.6604 20.26 36.9374 20.415C37.4956 20.7273 38.3128 20.9745 39.4856 20.9745V18.9745C38.5984 18.9745 38.1282 18.7895 37.9139 18.6696C37.8046 18.6084 37.7499 18.5577 37.7329 18.5405C37.724 18.5316 37.7239 18.5303 37.7307 18.5391C37.734 18.5435 37.7391 18.5504 37.7457 18.5602C37.749 18.5651 37.7527 18.5706 37.7567 18.577C37.7587 18.5801 37.7608 18.5835 37.7629 18.587C37.764 18.5888 37.7651 18.5906 37.7663 18.5925C37.7668 18.5934 37.7674 18.5944 37.768 18.5953C37.7683 18.5958 37.7687 18.5965 37.7689 18.5968C37.7693 18.5975 37.7697 18.5982 36.9106 19.1101ZM39.4856 20.9745C40.0786 20.9745 40.9652 21.1244 41.6661 21.531C42.3168 21.9085 42.7773 22.475 42.7773 23.4323H44.7773C44.7773 21.6234 43.8072 20.4609 42.6697 19.8011C41.5825 19.1704 40.3232 18.9745 39.4856 18.9745V20.9745ZM42.7773 23.4323V29.4834H44.7773V23.4323H42.7773ZM42.7773 29.4834C42.7773 29.5532 42.7214 29.7464 42.5166 29.9526C42.3111 30.1596 42.1224 30.2122 42.0606 30.2122L42.0606 32.2122C42.8182 32.2122 43.4878 31.813 43.9358 31.3618C44.3845 30.9099 44.7773 30.2387 44.7773 29.4834H42.7773ZM42.0606 30.2122H41.0852V32.2122H42.0606V30.2122ZM30.044 30.2122H18.0273V32.2122H30.044V30.2122ZM31.7606 10.3301H18.0273V12.3301H31.7606V10.3301ZM38.344 31.2122C38.344 32.5082 37.3046 33.5345 36.0523 33.5345V37.5345C39.5404 37.5345 42.344 34.6905 42.344 31.2122H38.344ZM36.0523 33.5345C34.8 33.5345 33.7606 32.5082 33.7606 31.2122H29.7606C29.7606 34.6905 32.5642 37.5345 36.0523 37.5345V33.5345ZM33.7606 31.2122C33.7606 29.9163 34.8 28.89 36.0523 28.89V24.89C32.5642 24.89 29.7606 27.734 29.7606 31.2122H33.7606ZM36.0523 28.89C37.3046 28.89 38.344 29.9163 38.344 31.2122H42.344C42.344 27.734 39.5404 24.89 36.0523 24.89V28.89Z" fill="#1E1E1E" mask="url(#path-3-outside-2_161_502)"/>
<path d="M31.3689 14.1626H24.0639C24.0086 14.1626 23.9639 14.2074 23.9639 14.2626V21.2925C23.9639 21.3477 24.0086 21.3925 24.0639 21.3925H34.9986C35.0735 21.3925 35.1218 21.3132 35.0874 21.2466L31.4577 14.2167C31.4406 14.1835 31.4063 14.1626 31.3689 14.1626Z" stroke="#1E1E1E" stroke-width="2"/>
<path d="M14.6419 14.1626H21.9469C22.0021 14.1626 22.0469 14.2074 22.0469 14.2626V21.2925C22.0469 21.3477 22.0021 21.3925 21.9469 21.3925H11.0122C10.9373 21.3925 10.8889 21.3132 10.9233 21.2466L14.553 14.2167C14.5702 14.1835 14.6045 14.1626 14.6419 14.1626Z" stroke="#1E1E1E" stroke-width="2"/>
</svg>
