<svg width="15" height="15" viewBox="0 0 15 15" fill="none" xmlns="http://www.w3.org/2000/svg">
<g clip-path="url(#clip0_85_4)">
<path d="M13.75 6.92504V7.50004C13.7492 8.8478 13.3128 10.1592 12.5058 11.2387C11.6989 12.3181 10.5646 13.1078 9.2721 13.49C7.97964 13.8721 6.59829 13.8262 5.33404 13.3592C4.0698 12.8921 2.99041 12.0288 2.25685 10.8982C1.52329 9.76756 1.17487 8.43008 1.26355 7.08523C1.35223 5.74039 1.87325 4.46024 2.74892 3.43571C3.6246 2.41117 4.80799 1.69715 6.12262 1.40013C7.43725 1.10311 8.81267 1.239 10.0438 1.78754" stroke="#1570BF" stroke-linecap="round" stroke-linejoin="round"/>
<path d="M13.75 2.5L7.5 8.75625L5.625 6.88125" stroke="#1570BF" stroke-linecap="round" stroke-linejoin="round"/>
</g>
<defs>
<clipPath id="clip0_85_4">
<rect width="15" height="15" fill="white"/>
</clipPath>
</defs>
</svg>
