<svg width="45" height="37" viewBox="0 0 45 37" fill="none" xmlns="http://www.w3.org/2000/svg">
<path d="M32.9651 36.6279H12.0349C2.80465 36.6279 0 33.8233 0 24.593V23.5465C0 22.6884 0.711628 21.9767 1.56977 21.9767C3.57907 21.9767 5.23256 20.3233 5.23256 18.314C5.23256 16.3047 3.57907 14.6512 1.56977 14.6512C0.711628 14.6512 0 13.9395 0 13.0814V12.0349C0 2.80465 2.80465 0 12.0349 0H32.9651C42.1954 0 45 2.80465 45 12.0349V14.1279C45 14.986 44.2884 15.6977 43.4302 15.6977C41.4209 15.6977 39.7674 17.3512 39.7674 19.3605C39.7674 21.3698 41.4209 23.0233 43.4302 23.0233C44.2884 23.0233 45 23.7349 45 24.593C45 33.8233 42.1954 36.6279 32.9651 36.6279ZM3.13953 24.9279C3.1814 32.1279 4.66744 33.4884 12.0349 33.4884H32.9651C39.9558 33.4884 41.6512 32.2535 41.8395 25.9744C38.8465 25.2628 36.6279 22.5628 36.6279 19.3605C36.6279 16.1581 38.8674 13.4581 41.8605 12.7465V12.0349C41.8605 4.56279 40.4581 3.13953 32.9651 3.13953H12.0349C4.66744 3.13953 3.1814 4.5 3.13953 11.7C6.13256 12.4116 8.37209 15.1116 8.37209 18.314C8.37209 21.5163 6.13256 24.2163 3.13953 24.9279Z" fill="#292D32"/>
<path d="M18.3142 8.37209C17.456 8.37209 16.7444 7.66047 16.7444 6.80233V1.56977C16.7444 0.711628 17.456 0 18.3142 0C19.1723 0 19.8839 0.711628 19.8839 1.56977V6.80233C19.8839 7.66047 19.1723 8.37209 18.3142 8.37209Z" fill="#292D32"/>
<path d="M18.3142 23.7144C17.456 23.7144 16.7444 23.0028 16.7444 22.1447V14.4633C16.7444 13.6051 17.456 12.8934 18.3142 12.8934C19.1723 12.8934 19.8839 13.6051 19.8839 14.4633V22.1447C19.8839 23.0237 19.1723 23.7144 18.3142 23.7144Z" fill="#292D32"/>
<path d="M18.3142 36.628C17.456 36.628 16.7444 35.9163 16.7444 35.0582V29.8256C16.7444 28.9675 17.456 28.2559 18.3142 28.2559C19.1723 28.2559 19.8839 28.9675 19.8839 29.8256V35.0582C19.8839 35.9163 19.1723 36.628 18.3142 36.628Z" fill="#292D32"/>
</svg>
