<svg width="25" height="25" viewBox="0 0 25 25" fill="none" xmlns="http://www.w3.org/2000/svg">
<g clip-path="url(#clip0_161_299)">
<path d="M9.02275 16.8311C9.10311 17.3133 9.5203 17.6667 10.0091 17.6667H14.4928C14.9761 17.6667 15.3903 17.3211 15.4767 16.8456C15.6145 16.0876 16.0666 14.8957 16.9542 13.9114C17.8164 12.9553 19.092 12.1866 20.9693 12.1866C21.5216 12.1866 21.9693 11.7389 21.9693 11.1866C21.9693 9.28062 20.8311 5.15731 16.1835 4.22779C15.8194 4.15496 15.4448 4.28993 15.2109 4.5783C14.9769 4.86667 14.922 5.26096 15.0683 5.60229C15.3081 6.16201 15.6195 7.05968 15.7561 7.86636C15.7929 8.08304 15.8142 8.27761 15.8212 8.44662C15.2174 8.32101 14.5101 8.26639 13.775 8.3646C12.7168 8.50598 11.5983 8.9677 10.6881 9.9703C9.93198 9.67116 8.96357 9.33509 7.95694 9.07305C6.62912 8.7274 5.06914 8.46461 3.83476 8.71149C3.81921 8.7146 3.80373 8.71808 3.78835 8.72193C3.4303 8.81144 2.87283 8.97058 2.34339 9.16351C2.07898 9.25986 1.80532 9.3705 1.56038 9.4917C1.33664 9.60241 1.05177 9.7624 0.832833 9.98134C0.645296 10.1689 0.539939 10.4232 0.539939 10.6884V12.183C0.539939 12.4909 0.681811 12.7817 0.924527 12.9712C1.16724 13.1607 1.48373 13.2278 1.78247 13.1532C2.0968 13.0746 2.62409 12.9547 3.16548 12.8552C3.72607 12.7521 4.22933 12.6848 4.52907 12.6848C5.19086 12.6848 5.95827 13.0092 7.46169 14.0114C7.53564 14.0607 7.61584 14.1 7.70016 14.1281C7.69863 14.1276 7.69962 14.1281 7.70296 14.1299C7.73319 14.1465 7.95538 14.268 8.23061 14.6616C8.51999 15.0755 8.84448 15.7615 9.02275 16.8311Z" stroke="#1E1E1E" stroke-width="2" stroke-linecap="round" stroke-linejoin="round"/>
</g>
<defs>
<clipPath id="clip0_161_299">
<rect width="25" height="25" fill="white"/>
</clipPath>
</defs>
</svg>
