<svg width="45" height="46" viewBox="0 0 45 46" fill="none" xmlns="http://www.w3.org/2000/svg">
<path d="M7.39729 30.4607C7.03507 30.8777 7.07941 31.5093 7.49632 31.8715C7.91323 32.2337 8.54484 32.1894 8.90706 31.7725L14.6381 25.1761C15.3561 25.7804 16.515 27.2667 17.0297 30.3767C17.1096 30.8595 17.527 31.2135 18.0163 31.2135H26.087C26.5707 31.2135 26.9851 30.8672 27.071 30.3911C27.3421 28.8896 28.2136 26.5836 29.9257 24.6716C30.4525 24.0833 31.059 23.5315 31.7547 23.0508L35.9722 30.6965C36.239 31.1801 36.8472 31.3559 37.3308 31.0891C37.8144 30.8223 37.9902 30.2141 37.7234 29.7305L33.5084 22.0895C34.7122 21.5835 36.115 21.2791 37.7446 21.2791C38.2968 21.2791 38.7446 20.8314 38.7446 20.2791C38.7446 17.0287 36.8133 10.0402 28.9746 8.46134C28.6108 8.38805 28.2363 8.5223 28.0019 8.81005C27.7675 9.0978 27.7117 9.4917 27.857 9.83321C28.101 10.4066 28.3856 11.1697 28.6361 11.9955L25.6707 10.3709C25.1863 10.1055 24.5786 10.2831 24.3132 10.7674C24.0478 11.2518 24.2254 11.8595 24.7097 12.1249L29.2189 14.5953C29.2837 15.1152 29.3007 15.5827 29.2624 15.9739C29.2488 16.1126 29.2293 16.2327 29.2057 16.3363C28.0463 15.9808 26.5105 15.7524 24.8999 15.9691C23.0158 16.2226 21.0283 17.0893 19.4714 19.0446C18.08 18.4658 16.1435 17.7645 14.1225 17.2346C11.7484 16.6122 9.09109 16.1799 7.05798 16.5894C7.04233 16.5926 7.02676 16.5961 7.01128 16.6C6.38737 16.7571 5.41125 17.0379 4.48971 17.3761C4.02925 17.545 3.56614 17.7343 3.16081 17.9363C2.77654 18.1278 2.36052 18.3709 2.06213 18.6714C1.87613 18.8587 1.77174 19.112 1.77174 19.376V22.0854C1.77174 22.3936 1.91389 22.6846 2.15699 22.8741C2.4001 23.0636 2.717 23.1304 3.0159 23.0551C3.59582 22.9091 4.56139 22.688 5.55433 22.5042C6.5666 22.3168 7.53429 22.1823 8.15218 22.1823C9.42928 22.1823 10.7884 22.7411 12.9233 24.1003L7.39729 30.4607ZM32.6007 27.9579C32.9267 27.5121 32.8296 26.8864 32.3838 26.5604C31.938 26.2344 31.3123 26.3315 30.9863 26.7773C30.0498 28.0579 29.5535 29.6098 29.5711 31.1984C29.5887 32.787 30.1195 34.3275 31.0843 35.5867C32.0491 36.8461 33.3958 37.756 34.9217 38.1773C36.4476 38.5987 38.0683 38.5082 39.5383 37.9197C41.0082 37.3312 42.2464 36.2773 43.0669 34.9187C43.8873 33.5603 44.2458 31.9705 44.089 30.3896C43.9323 28.8087 43.2685 27.3212 42.1969 26.1523C41.1252 24.9833 39.7036 24.1965 38.1466 23.9123C37.6033 23.8131 37.0825 24.1732 36.9834 24.7165C36.8842 25.2598 37.2443 25.7806 37.7876 25.8798C38.914 26.0854 39.9445 26.6549 40.7227 27.5038C41.501 28.3528 41.9846 29.435 42.0988 30.587C42.213 31.739 41.9516 32.8967 41.3549 33.8848C40.7582 34.8728 39.8592 35.6369 38.7949 36.063C37.7307 36.489 36.5582 36.5544 35.4541 36.2495C34.3499 35.9446 33.373 35.2855 32.6719 34.3704C31.9707 33.4552 31.5838 32.3339 31.571 31.1762C31.5581 30.0185 31.92 28.8888 32.6007 27.9579ZM8.99333 25.8628C9.53844 25.9515 10.0523 25.5816 10.141 25.0365C10.2298 24.4914 9.85986 23.9775 9.31476 23.8888C7.75258 23.6344 6.15092 23.8994 4.75232 24.6429C3.35384 25.3864 2.23516 26.5676 1.56415 28.0065C0.893177 29.4453 0.705819 31.0644 1.02995 32.6195C1.35409 34.1745 2.17245 35.5823 3.36273 36.6292C4.55312 37.6761 6.05066 38.3051 7.62911 38.4195C9.20758 38.534 10.7796 38.1276 12.1072 37.2627C13.4347 36.398 14.4452 35.1223 14.9873 33.6297C15.5294 32.1371 15.5741 30.5077 15.1148 28.9873C14.9551 28.4587 14.3971 28.1595 13.8684 28.3192C13.3397 28.479 13.0406 29.037 13.2003 29.5657C13.5348 30.673 13.5022 31.8601 13.1074 32.9469C12.7127 34.0337 11.9779 34.96 11.0155 35.5869C10.0533 36.2138 8.91536 36.5075 7.77374 36.4248C6.6321 36.342 5.54729 35.887 4.68358 35.1274C3.81976 34.3676 3.22401 33.3442 2.98787 32.2114C2.75172 31.0784 2.88838 29.899 3.37674 28.8518C3.86505 27.8047 4.67795 26.9476 5.69118 26.4089C6.7043 25.8703 7.86334 25.6788 8.99333 25.8628Z" stroke="#1E1E1E" stroke-width="2" stroke-linecap="round" stroke-linejoin="round"/>
</svg>
