<svg width="25" height="25" viewBox="0 0 25 25" fill="none" xmlns="http://www.w3.org/2000/svg">
<path d="M1.04199 4.16675V10.4167H7.29199" stroke="white" stroke-width="2" stroke-linecap="round" stroke-linejoin="round"/>
<path d="M23.958 20.8333V14.5833H17.708" stroke="white" stroke-width="2" stroke-linecap="round" stroke-linejoin="round"/>
<path d="M21.3441 9.37498C20.8158 7.88205 19.9179 6.54727 18.7342 5.4952C17.5505 4.44314 16.1196 3.70807 14.575 3.35858C13.0304 3.00909 11.4225 3.05658 9.90117 3.49662C8.37988 3.93665 6.99485 4.75489 5.87533 5.87498L1.04199 10.4166M23.9587 14.5833L19.1253 19.125C18.0058 20.2451 16.6208 21.0633 15.0995 21.5033C13.5782 21.9434 11.9702 21.9909 10.4256 21.6414C8.88102 21.2919 7.45012 20.5568 6.26644 19.5047C5.08276 18.4527 4.18487 17.1179 3.65658 15.625" stroke="white" stroke-width="2" stroke-linecap="round" stroke-linejoin="round"/>
</svg>
